<svg width="15" height="15" viewBox="0 0 15 15" fill="none" xmlns="http://www.w3.org/2000/svg">
<path d="M11.8376 10.7933L15 13.9557L13.9557 15L10.7933 11.8376C9.65622 12.7473 8.21416 13.2915 6.64576 13.2915C2.9773 13.2915 0 10.3142 0 6.64576C0 2.9773 2.9773 0 6.64576 0C10.3142 0 13.2915 2.9773 13.2915 6.64576C13.2915 8.21416 12.7473 9.65622 11.8376 10.7933ZM10.3561 10.2454C11.259 9.31485 11.8147 8.04551 11.8147 6.64576C11.8147 3.78993 9.50159 1.47684 6.64576 1.47684C3.78993 1.47684 1.47684 3.78993 1.47684 6.64576C1.47684 9.50159 3.78993 11.8147 6.64576 11.8147C8.04551 11.8147 9.31485 11.259 10.2454 10.3561L10.3561 10.2454Z" fill="#474747"/>
</svg>
